<?xml version="1.0" encoding="UTF-8" standalone="no"?>
<svg width="173px" height="173px" viewBox="0 0 173 173" version="1.1" xmlns="http://www.w3.org/2000/svg" xmlns:xlink="http://www.w3.org/1999/xlink">
    <!-- Generator: Sketch 3.8.3 (29802) - http://www.bohemiancoding.com/sketch -->
    <title>Group</title>
    <desc>Created with Sketch.</desc>
    <defs>
        <linearGradient x1="50%" y1="82.938058%" x2="50%" y2="0%" id="linearGradient-1">
            <stop stop-color="#FF0000" offset="0%"></stop>
            <stop stop-color="#FF00E6" offset="100%"></stop>
        </linearGradient>
        <path d="M46.0588235,43 L59.7058824,43 L59.7058824,56.6551724 L46.0588235,56.6551724 L46.0588235,43 Z M63.1176471,43 L76.7647059,43 L76.7647059,56.6551724 L63.1176471,56.6551724 L63.1176471,43 Z M46.0588235,60.0689655 L59.7058824,60.0689655 L59.7058824,73.7241379 L46.0588235,73.7241379 L46.0588235,60.0689655 Z M29,60.0689655 L42.6470588,60.0689655 L42.6470588,73.7241379 L29,73.7241379 L29,60.0689655 Z M63.1176471,60.0689655 L76.7647059,60.0689655 L76.7647059,73.7241379 L63.1176471,73.7241379 L63.1176471,60.0689655 Z M80.1764706,60.0689655 L93.8235294,60.0689655 L93.8235294,73.7241379 L80.1764706,73.7241379 L80.1764706,60.0689655 Z M97.2352941,60.0689655 L110.882353,60.0689655 L110.882353,73.7241379 L97.2352941,73.7241379 L97.2352941,60.0689655 Z M114.294118,60.0689655 L127.941176,60.0689655 L127.941176,73.7241379 L114.294118,73.7241379 L114.294118,60.0689655 Z M131.352941,60.0689655 L145,60.0689655 L145,73.7241379 L131.352941,73.7241379 L131.352941,60.0689655 Z M46.0588235,77.137931 L59.7058824,77.137931 L59.7058824,90.7931034 L46.0588235,90.7931034 L46.0588235,77.137931 Z M29,77.137931 L42.6470588,77.137931 L42.6470588,90.7931034 L29,90.7931034 L29,77.137931 Z M63.1176471,77.137931 L76.7647059,77.137931 L76.7647059,90.7931034 L63.1176471,90.7931034 L63.1176471,77.137931 Z M80.1764706,77.137931 L93.8235294,77.137931 L93.8235294,90.7931034 L80.1764706,90.7931034 L80.1764706,77.137931 Z M97.2352941,77.137931 L110.882353,77.137931 L110.882353,90.7931034 L97.2352941,90.7931034 L97.2352941,77.137931 Z M114.294118,77.137931 L127.941176,77.137931 L127.941176,90.7931034 L114.294118,90.7931034 L114.294118,77.137931 Z M46.0588235,94.2068966 L59.7058824,94.2068966 L59.7058824,107.862069 L46.0588235,107.862069 L46.0588235,94.2068966 Z M63.1176471,94.2068966 L76.7647059,94.2068966 L76.7647059,107.862069 L63.1176471,107.862069 L63.1176471,94.2068966 Z M80.1764706,94.2068966 L93.8235294,94.2068966 L93.8235294,107.862069 L80.1764706,107.862069 L80.1764706,94.2068966 Z M97.2352941,94.2068966 L110.882353,94.2068966 L110.882353,107.862069 L97.2352941,107.862069 L97.2352941,94.2068966 Z M63.1176471,111.275862 L76.7647059,111.275862 L76.7647059,124.931034 L63.1176471,124.931034 L63.1176471,111.275862 Z M80.1764706,111.275862 L93.8235294,111.275862 L93.8235294,124.931034 L80.1764706,124.931034 L80.1764706,111.275862 Z M80.1764706,128.344828 L93.8235294,128.344828 L93.8235294,142 L80.1764706,142 L80.1764706,128.344828 Z M97.2352941,111.275862 L110.882353,111.275862 L110.882353,124.931034 L97.2352941,124.931034 L97.2352941,111.275862 Z M114.294118,94.2068966 L127.941176,94.2068966 L127.941176,107.862069 L114.294118,107.862069 L114.294118,94.2068966 Z M131.352941,77.137931 L145,77.137931 L145,90.7931034 L131.352941,90.7931034 L131.352941,77.137931 Z M114.294118,43 L127.941176,43 L127.941176,56.6551724 L114.294118,56.6551724 L114.294118,43 Z M97.2352941,43 L110.882353,43 L110.882353,56.6551724 L97.2352941,56.6551724 L97.2352941,43 Z" id="path-2"></path>
    </defs>
    <g id="Page-1" stroke="none" stroke-width="1" fill="none" fill-rule="evenodd">
        <g id="Artboard-3" transform="translate(-264.000000, -99.000000)">
            <g id="Group" transform="translate(264.000000, 99.000000)">
                <path d="M86.5,166 L86.5,166 C130.406638,166 166,130.406638 166,86.5 C166,42.5933624 130.406638,7 86.5,7 C42.5933624,7 7,42.5933624 7,86.5 C7,130.406638 42.5933624,166 86.5,166 L86.5,166 Z M86.5,173 L86.5,173 C38.7273691,173 0,134.272631 0,86.5 C0,38.7273691 38.7273691,0 86.5,0 C134.272631,0 173,38.7273691 173,86.5 C173,134.272631 134.272631,173 86.5,173 L86.5,173 Z" id="Oval-1" fill="url(#linearGradient-1)"></path>
                <mask id="mask-3" fill="white">
                    <use xlink:href="#path-2"></use>
                </mask>
                <use id="Combined-Shape" fill="#FF0000" xlink:href="#path-2"></use>
                <rect id="Rectangle-276" fill="url(#linearGradient-1)" mask="url(#mask-3)" x="-1" y="0" width="174" height="174"></rect>
            </g>
        </g>
    </g>
</svg>