<?xml version="1.0" encoding="UTF-8" standalone="no"?>
<svg width="139px" height="171px" viewBox="0 0 139 171" version="1.1" xmlns="http://www.w3.org/2000/svg" xmlns:xlink="http://www.w3.org/1999/xlink">
    <!-- Generator: Sketch 3.8.3 (29802) - http://www.bohemiancoding.com/sketch -->
    <title>Shape</title>
    <desc>Created with Sketch.</desc>
    <defs></defs>
    <g id="Page-1" stroke="none" stroke-width="1" fill="none" fill-rule="evenodd">
        <g id="Full-Landing" transform="translate(-200.000000, -1626.000000)" fill="#FFFFFF">
            <g id="Group-7" transform="translate(0.000000, 1598.000000)">
                <path d="M202.674381,181.697584 C203.694437,183.727136 203.841525,185.833476 203.679361,188.050405 C203.538524,189.970837 203.550291,191.908905 203.631557,193.833379 C203.676787,194.890406 204.008103,195.93531 204.209246,196.986091 C204.461502,196.485317 204.581379,196.0132 204.711919,195.542185 C205.589668,192.403434 206.888824,189.385559 207.256544,186.103152 C207.676481,182.354139 207.712517,178.685956 205.775734,175.3297 C203.373785,164.679329 210.566395,158.258905 216.336295,150.702462 C216.253925,154.496298 216.247674,158.293442 216.235907,162.089115 C216.212005,168.777378 215.655277,175.40612 214.227051,181.952197 C213.409241,185.702679 213.289364,189.495046 213.87882,193.286311 C214.2208,195.483767 214.305008,197.65624 213.847564,199.837164 C212.341381,207.026201 211.772518,214.350811 210.675976,221.598266 C210.569337,222.304421 210.762758,222.722529 211.307351,223.182521 C212.783749,224.426926 213.026812,225.106995 212.039483,227.049839 C211.840178,227.442229 211.658524,227.857765 211.560711,228.285059 C211.445247,228.785466 211.568433,229.178591 212.103834,229.485742 C212.812063,229.891726 213.527647,230.13201 214.318246,229.989456 C215.405962,229.793261 216.475661,229.503745 217.561907,229.293589 C218.135183,229.182632 218.23557,228.864826 218.071935,228.3883 C217.993978,228.161978 217.902416,227.912876 217.740251,227.746809 C217.045627,227.031836 216.331514,226.335969 215.608576,225.648184 C215.086413,225.151819 214.781573,224.60769 214.826803,223.841648 C214.901818,222.531845 214.879387,221.216898 214.921307,219.905258 C215.059202,215.615056 215.134217,211.321914 215.369926,207.036121 C215.657851,201.776334 216.142506,196.529405 216.960316,191.320688 C217.117701,190.316567 217.212572,189.252191 217.632509,188.35278 C218.268297,186.982723 218.678306,185.584007 218.949683,184.112178 C219.465595,181.315114 220.0374,178.528338 221.15196,175.889994 C222.893852,171.770636 225.120398,167.934548 227.915441,164.440515 C228.369943,163.872137 228.781054,163.286125 229.171206,162.692396 C229.370878,163.043269 229.622766,163.352258 229.922826,163.616055 C229.873184,163.83356 229.852224,164.059515 229.907749,164.248729 C230.880002,167.582573 231.699283,170.946177 231.884982,174.429922 C232.071048,177.915137 231.869905,181.359938 230.720779,184.698191 C230.624804,184.978522 230.579574,185.321679 230.645764,185.60348 C231.75297,190.344857 233.101768,195.020468 234.837408,199.570059 C237.78579,207.294407 240.718727,215.019123 242.366114,223.15717 C242.444071,223.540742 242.645214,223.707177 243.039778,223.755308 C243.545394,223.816664 244.043287,223.948563 244.541548,224.065766 C245.762747,224.351975 246.335656,225.483586 245.582932,226.589846 C245.080258,227.326129 245.160054,227.472724 245.938518,227.927205 C246.109507,228.026405 246.297045,228.116052 246.489363,228.153527 C248.118731,228.463986 249.72236,228.216354 251.321943,227.910672 C251.645905,227.849315 251.742248,227.656059 251.593321,227.31878 C250.618127,225.089727 249.878641,224.623488 247.460144,224.744733 C247.443597,224.744733 247.427049,224.717912 247.371524,224.669782 C247.889274,223.192074 247.551707,221.787113 246.886868,220.405298 C246.28969,219.1642 245.746568,217.895913 245.194619,216.633506 C242.053184,209.454756 239.20372,202.183052 238.099823,194.356565 C237.661868,191.25235 237.302973,188.153646 237.630244,184.999831 C237.808589,183.269715 238.218229,181.706402 239.304475,180.313933 C239.670724,179.844755 239.900182,179.207305 240.012704,178.613944 C240.636726,175.324924 241.643544,172.156045 242.911076,169.066894 C243.397202,167.879804 243.914585,166.700063 244.438219,165.47807 C244.91552,165.299511 245.353474,165.01771 245.698396,164.60695 C245.749509,164.545593 245.797681,164.473581 245.849897,164.410755 C246.18011,164.415531 246.507013,164.437576 246.838697,164.428758 C246.927318,164.427288 247.0141,164.41994 247.10272,164.417001 C249.651758,164.638914 252.196382,164.463294 254.662683,163.919533 C254.715267,163.911817 254.767851,163.908878 254.821905,163.899693 C257.508838,163.496281 259.957488,162.577398 262.074454,161.005267 C263.370668,160.237755 264.602531,159.342754 265.76085,158.339735 C265.303038,159.518006 264.795952,160.68746 264.572746,161.909086 C264.097283,164.494891 264.17046,167.128826 264.45103,169.752106 C264.692623,172.006878 264.893766,174.265692 265.045266,176.527444 C265.231333,179.282623 264.694093,181.973506 264.184065,184.659613 C263.754936,186.923203 263.568869,189.192671 263.868929,191.486388 C264.024842,192.676417 264.245475,193.857628 264.380428,195.049493 C264.766167,198.446164 264.534871,201.839895 264.342921,205.239504 C264.122288,209.144298 263.622924,213.029986 263.713016,216.957558 C263.804578,221.04238 264.146558,225.071724 265.409677,228.985335 C265.510065,229.301672 265.43983,229.726026 265.316644,230.049711 C265.022835,230.828979 265.232436,231.131722 266.075619,231.098655 C266.576822,231.079183 267.083908,231.13907 267.588052,231.164789 C267.240189,231.559015 266.858863,231.751169 266.542256,232.017538 C266.386342,232.149437 266.249918,232.441893 266.285587,232.62633 C266.318682,232.801583 266.563216,232.993369 266.758108,233.06979 C267.106339,233.206465 267.482884,233.282885 267.85465,233.345712 C269.452762,233.623104 271.056758,233.706872 272.665167,233.461077 C272.609641,231.03987 272.593094,231.05971 270.839068,229.485742 C270.448917,229.136706 270.111349,228.635932 269.952494,228.141036 C269.628533,227.129199 269.466368,226.067762 269.196094,225.03682 C268.568763,222.650517 267.904292,220.260907 267.872668,217.778343 C267.839573,215.044474 267.794711,212.299582 267.992545,209.576 C268.304739,205.25567 268.711438,200.935341 269.273683,196.642567 C269.825998,192.415191 270.60005,188.216473 271.318943,184.013346 C272.138224,179.21796 272.931764,174.416696 273.872393,169.645191 C274.682481,165.529139 275.681577,161.448726 276.598304,157.353249 C276.649417,157.128764 276.709355,156.906483 276.764881,156.683468 C276.893951,156.764664 276.925575,156.839248 276.931459,156.914199 C277.251008,161.370836 277.657706,165.824534 277.844876,170.28705 C277.93938,172.518675 277.567247,174.767201 277.516134,177.010216 C277.392948,182.45738 277.314991,187.906382 277.259833,193.353546 C277.241815,195.109013 277.262775,196.873298 277.414275,198.621416 C277.795234,203.071808 278.209287,207.521097 278.706077,211.959731 C279.136677,215.801698 279.708483,219.627131 280.191299,223.46322 C280.263373,224.038578 280.506436,224.292088 281.067577,224.380633 C282.111903,224.543761 282.642891,225.332582 282.971633,226.21399 C283.41731,227.410265 283.507034,228.669366 283.287872,229.901279 C284.063395,230.090493 284.788171,230.286688 285.525083,230.442468 C286.561687,230.663279 287.598658,230.911646 288.648499,231.037666 C289.376218,231.124374 289.760118,230.765051 289.745042,230.021053 C289.733274,229.418507 289.678852,228.706474 289.35489,228.243542 C288.382638,226.846296 287.008467,225.931822 285.338649,225.511877 C284.957323,225.415984 284.567171,225.35279 284.184742,225.276369 C284.141351,224.906024 284.103476,224.57646 284.061556,224.24653 C283.731711,221.533235 283.353327,218.824716 283.086729,216.105543 C282.737027,212.566319 282.453515,209.019747 282.18655,205.473175 C282.01078,203.145289 281.846041,200.812627 281.808533,198.480332 C281.775439,196.414775 281.938706,194.34591 281.985407,192.277413 C282.113006,186.471661 282.474475,180.682074 283.202194,174.918572 C283.712589,170.875635 284.534444,166.903606 285.943181,163.064211 C286.410186,161.792986 286.916904,160.518821 287.193062,159.201302 C288.063089,155.059532 288.371974,150.84575 288.682697,146.633438 C288.798162,145.05947 288.828315,143.459783 289.153747,141.92623 C289.483592,140.372102 290.079667,138.865369 290.656988,137.376639 C291.03096,136.415872 291.03096,135.463922 290.884975,134.498746 C290.570206,132.403061 289.530293,130.614895 288.382638,128.88331 C287.854224,128.085671 287.29345,127.310811 286.787835,126.501415 C286.670899,126.315508 286.622728,125.987414 286.705097,125.795628 C287.362214,124.288895 287.989177,122.761587 288.760654,121.311802 C291.591365,115.9947 294.392291,110.659962 297.35722,105.41781 C301.245863,98.5418028 304.172917,91.2987568 306.08874,83.6489922 C307.317661,78.7349342 308.214899,73.7554779 309.062494,68.7561816 C309.925166,63.6595227 311.157029,58.6242206 312.267177,53.5698135 C312.57643,52.1637499 312.975406,50.77275 313.431379,49.4067337 C313.558978,49.0246313 314.021203,48.5073233 314.355828,48.4878508 C315.563422,48.4176762 316.805581,48.3934274 317.989641,48.6061556 C320.471018,49.0529215 322.915255,49.2164173 325.397735,48.6226889 C326.293869,48.4084911 327.250677,48.3364794 328.173288,48.3754245 C330.236199,48.4639694 332.300949,48.6226889 334.356138,48.8280689 C335.805323,48.9735618 337.007034,48.5073233 338.225291,47.5630894 C337.800574,47.0443118 337.49316,46.4957743 337.035348,46.1419622 C335.892473,45.2605547 334.729374,44.3806168 333.484273,43.6564592 C331.352598,42.4164632 329.149953,41.2999158 326.980403,40.1264204 C325.232628,39.181819 323.744096,38.0351442 322.885837,36.1150794 C322.26917,34.7362039 321.079595,34.0807512 319.427795,34.1784813 C318.262122,34.2475536 317.075488,34.4617515 315.875249,34.1215333 C315.167019,33.9205621 314.615071,33.6104713 314.160569,33.0766301 C313.378795,32.1577471 313.305251,31.012542 313.150809,29.8897486 C312.934589,28.3201893 312.658799,28.0879886 311.084956,28.0832123 C311.018766,28.0832123 310.948532,28.0876212 310.885284,28.0696183 C310.028863,27.816108 309.430214,28.2988797 308.866131,28.8099418 C308.309403,29.3136557 308.360516,30.3765618 308.975712,30.8097338 C309.590908,31.2443753 310.225226,31.6823235 310.913966,31.9744114 C312.115676,32.4858409 312.959962,33.3536543 313.693932,34.3625518 C313.015855,35.6951341 312.331896,36.0610707 310.941177,35.7642065 C310.295828,35.6264291 309.634299,35.4570549 309.050727,35.1645995 C308.331834,34.8049089 307.823277,34.9878771 307.357007,35.5301687 C305.88061,37.2481601 304.346113,38.9224302 302.952085,40.7061873 C300.742086,43.5319085 299.096537,46.6949085 297.996686,50.098927 C296.986926,53.2244516 296.165071,56.4113331 295.263053,59.5713938 C293.454972,65.9091509 291.389119,72.1451364 287.882906,77.7932721 C287.123931,79.0178369 286.322668,80.2321145 285.411825,81.3457227 C281.307331,86.3556737 276.54241,90.7267053 271.667542,94.9463656 C267.430668,98.6127122 262.920578,101.964926 258.524849,105.445365 C257.950102,105.899479 257.261362,106.226471 256.745451,106.734594 C256.070316,107.398864 255.546682,108.214139 254.901333,108.912578 C253.407285,110.52843 251.904045,112.135465 250.355574,113.697309 C249.815393,114.241437 249.16747,114.707676 248.504102,115.097494 C244.559934,117.418031 240.206125,118.723793 235.867025,120.024778 C232.012948,121.180638 228.253008,122.499627 225.013759,124.971536 C224.167635,125.617803 223.184718,126.197938 222.589379,127.037461 C221.224034,128.965241 220.008718,130.966135 219.24055,133.276386 C218.484517,135.547323 217.872263,137.84104 217.3968,140.157169 C217.303767,140.303764 217.219927,140.46579 217.153737,140.647289 C214.609112,147.61625 208.597253,152.442865 204.383177,158.376108 C201.715734,162.131367 200.605586,166.455738 200.682072,170.837424 C199.85985,172.62706 199.820871,174.561086 200.351859,176.403261 C200.872551,178.23772 201.807296,179.972245 202.674381,181.697584 L202.674381,181.697584 Z" id="Shape"></path>
            </g>
        </g>
    </g>
</svg>